<svg width="58" height="74" viewBox="0 0 58 74" fill="none" xmlns="http://www.w3.org/2000/svg">
<g clip-path="url(#clip0_2403_21881)">
<path d="M0.941406 18.8808H19.9296V45.0961H10.3789C7.87589 45.0961 5.47544 44.1083 3.70557 42.35C1.93571 40.5916 0.941406 38.2068 0.941406 35.7201L0.941406 18.8808Z" fill="#009480"/>
<path d="M0.946138 18.8855H10.4402V45.1008C9.19304 45.1008 7.95808 44.8567 6.8059 44.3824C5.65372 43.9081 4.60689 43.2129 3.72522 42.3365C2.84355 41.4602 2.14432 40.4198 1.66748 39.2749C1.19063 38.13 0.945518 36.9029 0.946138 35.6639V18.8855Z" fill="#009480"/>
<path d="M21.5008 0.738483H9.28878C7.07572 0.739725 4.95373 1.61401 3.38931 3.16912C1.82488 4.72424 0.946075 6.83291 0.946075 9.03156V23.2643H21.5056C25.1288 23.3308 28.581 24.8075 31.1197 27.3766C33.6584 29.9458 35.0807 33.4022 35.0807 37.0025C35.0807 40.6028 33.6584 44.0592 31.1197 46.6284C28.581 49.1976 25.1288 50.6742 21.5056 50.7407H0.946075V73.2431H21.5056C31.1858 73.2431 40.4695 69.4227 47.3145 62.6223C54.1594 55.8219 58.0049 46.5986 58.0049 36.9814C58.0049 27.3642 54.1594 18.1409 47.3145 11.3405C40.4695 4.54015 31.1858 0.719727 21.5056 0.719727L21.5008 0.738483Z" fill="#01A493"/>
<path d="M21.5009 73.2616C30.4983 73.2607 39.1783 69.9582 45.8746 63.9881C52.571 58.018 56.8119 49.801 57.7832 40.9144C49.247 55.5597 37.9645 62.0104 21.449 62.0104H0.946136V73.2616H21.5009Z" fill="#009480"/>
</g>
<defs>
<clipPath id="clip0_2403_21881">
<rect width="57.0588" height="72.5234" fill="white" transform="translate(0.941406 0.738281)"/>
</clipPath>
</defs>
</svg>
